<svg width="200" height="200" viewBox="0 0 200 200" fill="none" xmlns="http://www.w3.org/2000/svg">
<g clip-path="url(#clip0_5_2)">
<rect width="200" height="200" fill="#FF8A00"/>
<rect x="-45.6272" y="31.7241" width="187.91" height="378.981" transform="rotate(-52.6308 -45.6272 31.7241)" fill="#E35A2E"/>
<path d="M45.5625 48V144H27.5625V48H45.5625ZM43 107.812H38.0625C38.1042 103.104 38.7292 98.7708 39.9375 94.8125C41.1458 90.8125 42.875 87.3542 45.125 84.4375C47.375 81.4792 50.0625 79.1875 53.1875 77.5625C56.3542 75.9375 59.8542 75.125 63.6875 75.125C67.0208 75.125 70.0417 75.6042 72.75 76.5625C75.5 77.4792 77.8542 78.9792 79.8125 81.0625C81.8125 83.1042 83.3542 85.7917 84.4375 89.125C85.5208 92.4583 86.0625 96.5 86.0625 101.25V144H67.9375V101.125C67.9375 98.125 67.5 95.7708 66.625 94.0625C65.7917 92.3125 64.5625 91.0833 62.9375 90.375C61.3542 89.625 59.3958 89.25 57.0625 89.25C54.4792 89.25 52.2708 89.7292 50.4375 90.6875C48.6458 91.6458 47.2083 92.9792 46.125 94.6875C45.0417 96.3542 44.25 98.3125 43.75 100.562C43.25 102.812 43 105.229 43 107.812ZM173 96.4375V132.5C171.583 134.208 169.396 136.062 166.438 138.062C163.479 140.021 159.667 141.708 155 143.125C150.333 144.542 144.688 145.25 138.062 145.25C132.188 145.25 126.833 144.292 122 142.375C117.167 140.417 113 137.562 109.5 133.812C106.042 130.062 103.375 125.479 101.5 120.062C99.625 114.604 98.6875 108.375 98.6875 101.375V95.6875C98.6875 88.6875 99.5833 82.4583 101.375 77C103.208 71.5417 105.812 66.9375 109.188 63.1875C112.562 59.4375 116.583 56.5833 121.25 54.625C125.917 52.6667 131.104 51.6875 136.812 51.6875C144.729 51.6875 151.229 52.9792 156.312 55.5625C161.396 58.1042 165.271 61.6458 167.938 66.1875C170.646 70.6875 172.312 75.8542 172.938 81.6875H154.75C154.292 78.6042 153.417 75.9167 152.125 73.625C150.833 71.3333 148.979 69.5417 146.562 68.25C144.188 66.9583 141.104 66.3125 137.312 66.3125C134.188 66.3125 131.396 66.9583 128.938 68.25C126.521 69.5 124.479 71.3542 122.812 73.8125C121.146 76.2708 119.875 79.3125 119 82.9375C118.125 86.5625 117.688 90.7708 117.688 95.5625V101.375C117.688 106.125 118.146 110.333 119.062 114C119.979 117.625 121.333 120.688 123.125 123.188C124.958 125.646 127.208 127.5 129.875 128.75C132.542 130 135.646 130.625 139.188 130.625C142.146 130.625 144.604 130.375 146.562 129.875C148.562 129.375 150.167 128.771 151.375 128.062C152.625 127.312 153.583 126.604 154.25 125.938V109.812H137.125V96.4375H173Z" fill="white"/>
</g>
<defs>
<clipPath id="clip0_5_2">
<rect width="200" height="200" fill="white"/>
</clipPath>
</defs>
</svg>
